<svg width="33" height="34" viewBox="0 0 33 34" fill="none" xmlns="http://www.w3.org/2000/svg">
<path id="Vector" d="M15.75 0.5C16.5 0.866667 18 3.28667 18 4.9C18 6.51333 16.995 7.1 15.75 7.1C14.505 7.1 13.5 6.88 13.5 5.26667C13.5 3.65333 15 2.7 15.75 0.5ZM26.25 12.9667C30 12.9667 33 15.9 33 19.5667C33 21.8547 31.815 23.864 30 25.052V33.5H3V25.052C1.185 23.864 0 21.8547 0 19.5667C0 15.9 3 12.9667 6.75 12.9667H13.5V8.56667H18V12.9667H26.25ZM16.5 23.2333C17.4946 23.2333 18.4484 22.847 19.1516 22.1594C19.8549 21.4718 20.25 20.5391 20.25 19.5667H22.5C22.5 20.5391 22.8951 21.4718 23.5984 22.1594C24.3016 22.847 25.2554 23.2333 26.25 23.2333C27.2446 23.2333 28.1984 22.847 28.9016 22.1594C29.6049 21.4718 30 20.5391 30 19.5667C30 18.5942 29.6049 17.6616 28.9016 16.9739C28.1984 16.2863 27.2446 15.9 26.25 15.9H6.75C5.75544 15.9 4.80161 16.2863 4.09835 16.9739C3.39509 17.6616 3 18.5942 3 19.5667C3 20.5391 3.39509 21.4718 4.09835 22.1594C4.80161 22.847 5.75544 23.2333 6.75 23.2333C7.74456 23.2333 8.69839 22.847 9.40165 22.1594C10.1049 21.4718 10.5 20.5391 10.5 19.5667H12.75C12.75 20.5391 13.1451 21.4718 13.8483 22.1594C14.5516 22.847 15.5054 23.2333 16.5 23.2333Z" fill="#B8FF00"/>
</svg>
