<svg width="33" height="34" viewBox="0 0 33 34" fill="none" xmlns="http://www.w3.org/2000/svg">
<path id="Vector" d="M16.5 0.5C12.1239 0.5 7.92709 2.23839 4.83274 5.33274C1.73839 8.42709 0 12.6239 0 17C0 21.3761 1.73839 25.5729 4.83274 28.6673C7.92709 31.7616 12.1239 33.5 16.5 33.5C20.8761 33.5 25.0729 31.7616 28.1673 28.6673C31.2616 25.5729 33 21.3761 33 17C33 12.6239 31.2616 8.42709 28.1673 5.33274C25.0729 2.23839 20.8761 0.5 16.5 0.5ZM9.75975 27.3826C10.5976 25.0714 10.4844 22.5221 9.44508 20.2942C8.40574 18.0663 6.5251 16.3416 4.21575 15.4985C4.54456 12.7535 5.79015 10.1999 7.75087 8.25087C10.0877 5.91406 13.1959 4.62706 16.5021 4.62706C19.8083 4.62706 22.9144 5.91406 25.2533 8.25087C27.2133 10.2003 28.4588 12.7538 28.7884 15.4985C26.479 16.3416 24.5984 18.0663 23.559 20.2942C22.5197 22.5221 22.4065 25.0714 23.2444 27.3826C21.2561 28.6799 18.9338 29.375 16.5041 29.375C14.0745 29.375 11.7521 28.6779 9.76388 27.3826H9.75975ZM17.7808 21.158C18.0033 21.2142 18.2008 21.3428 18.3423 21.5235C18.4838 21.7042 18.5613 21.9268 18.5625 22.1562V24.2188C18.5625 24.7859 18.0984 25.25 17.5312 25.25H15.4688C15.1954 25.2495 14.9334 25.1406 14.7401 24.9474C14.5469 24.7541 14.438 24.4921 14.4375 24.2188V22.1562C14.438 21.9266 14.5152 21.7036 14.6568 21.5228C14.7984 21.342 14.9963 21.2136 15.2192 21.158L15.9844 6.6875H17.0156L17.7808 21.158Z" fill="#B8FF00"/>
</svg>
