<svg width="33" height="34" viewBox="0 0 33 34" fill="none" xmlns="http://www.w3.org/2000/svg">
<path id="Vector" d="M16.5 33.5C14.2175 33.5 12.0725 33.0666 10.065 32.1998C8.0575 31.333 6.31125 30.1576 4.82625 28.6737C3.34125 27.1898 2.1659 25.4436 1.3002 23.435C0.434502 21.4264 0.00110209 19.2814 2.08861e-06 17C-0.00109791 14.7186 0.432302 12.5736 1.3002 10.565C2.1681 8.5564 3.34345 6.81015 4.82625 5.32625C6.30905 3.84235 8.0553 2.667 10.065 1.8002C12.0747 0.9334 14.2197 0.5 16.5 0.5C18.7803 0.5 20.9253 0.9334 22.935 1.8002C24.9447 2.667 26.6909 3.84235 28.1737 5.32625C29.6565 6.81015 30.8324 8.5564 31.7014 10.565C32.5704 12.5736 33.0033 14.7186 33 17C32.9967 19.2814 32.5633 21.4264 31.6998 23.435C30.8363 25.4436 29.6609 27.1898 28.1737 28.6737C26.6865 30.1576 24.9403 31.3335 22.935 32.2014C20.9297 33.0693 18.7847 33.5022 16.5 33.5ZM11.55 25.25H18.15C19.0575 25.25 19.8346 24.9271 20.4814 24.2814C21.1282 23.6357 21.4511 22.8586 21.45 21.95V19.475C21.45 18.76 21.2162 18.1687 20.7487 17.7012C20.2812 17.2337 19.69 17 18.975 17C19.69 17 20.2812 16.7662 20.7487 16.2987C21.2162 15.8312 21.45 15.24 21.45 14.525V12.05C21.45 11.1425 21.1271 10.3659 20.4814 9.7202C19.8357 9.0745 19.0586 8.7511 18.15 8.75H11.55V12.05H18.15V15.35H14.85V18.65H18.15V21.95H11.55V25.25Z" fill="#D6FF00"/>
</svg>
