<svg width="39" height="38" viewBox="0 0 39 38" fill="none" xmlns="http://www.w3.org/2000/svg">
<g id="Group 2">
<path id="Vector" d="M3 4.15C3.7319 5.13637 5.09988 5.8 6.66667 5.8C8.23345 5.8 9.60143 5.13637 10.3333 4.15C10.8823 3.16363 11.9082 2.5 13.0833 2.5C14.2584 2.5 15.2844 3.16363 15.8333 4.15C16.5652 5.13637 17.9332 5.8 19.5 5.8C21.0668 5.8 22.4348 5.13637 23.1667 4.15C23.7156 3.16363 24.7415 2.5 25.9167 2.5C27.0918 2.5 28.1178 3.16363 28.6667 4.15C29.3985 5.13637 30.7666 5.8 32.3333 5.8C33.9001 5.8 35.2681 5.13637 36 4.15V33.85C35.2681 32.8636 33.9001 32.2 32.3333 32.2C30.7666 32.2 29.3985 32.8636 28.6667 33.85C28.1178 34.8364 27.0918 35.5 25.9167 35.5C24.7415 35.5 23.7156 34.8364 23.1667 33.85C22.4348 32.8636 21.0668 32.2 19.5 32.2C17.9332 32.2 16.5652 32.8636 15.8333 33.85C15.2844 34.8364 14.2584 35.5 13.0833 35.5C11.9082 35.5 10.8823 34.8364 10.3333 33.85C9.60143 32.8636 8.23345 32.2 6.66667 32.2C5.09988 32.2 3.7319 32.8636 3 33.85V4.15Z" stroke="#B8FF00" stroke-width="5" stroke-linecap="round" stroke-linejoin="round"/>
<path id="Vector_2" d="M24.9999 12.0699H17.5639C15.5955 12.0699 13.9999 13.6213 13.9999 15.5349C13.9999 17.4486 15.5955 19 17.5639 19H21.1922C23.2951 19 24.9999 20.5513 24.9999 22.465C24.9999 24.3786 23.2951 25.93 21.1922 25.93H13.9999" stroke="#B8FF00" stroke-width="5" stroke-linecap="round" stroke-linejoin="round"/>
</g>
</svg>
