<svg width="33" height="34" viewBox="0 0 33 34" fill="none" xmlns="http://www.w3.org/2000/svg">
<path id="Vector" d="M31.7736 13.4082C31.5025 12.9781 31.2782 12.5182 31.1047 12.0368C30.9652 11.5353 30.8745 11.0205 30.834 10.5002C30.8146 9.23631 30.4621 8.00205 29.8147 6.93125C29.0303 5.95328 27.9991 5.221 26.8364 4.81632C26.367 4.63041 25.9184 4.39218 25.4986 4.10584C25.1186 3.77982 24.7717 3.41443 24.4633 3.01533C23.722 1.98772 22.7257 1.18821 21.5806 0.702135C20.4286 0.419047 19.2248 0.458965 18.0927 0.817795C17.0766 1.06552 16.019 1.06552 15.0029 0.817795C13.836 0.437775 12.5908 0.397765 11.4035 0.702135C10.2642 1.19078 9.27363 1.99008 8.53668 3.01533C8.22325 3.41526 7.87102 3.78068 7.48552 4.10584C7.06567 4.39218 6.61709 4.63041 6.14768 4.81632C4.97925 5.21828 3.94223 5.95076 3.15347 6.93125C2.51722 8.00542 2.17579 9.23945 2.16602 10.5002C2.12546 11.0205 2.03476 11.5353 1.89527 12.0368C1.71969 12.5067 1.4954 12.9555 1.22635 13.3752C0.505527 14.4419 0.0812821 15.6937 0 16.9937C0.0870041 18.2822 0.51099 19.5218 1.22635 20.5791C1.4954 20.9988 1.71969 21.4475 1.89527 21.9175C2.0261 22.4309 2.10615 22.9568 2.13417 23.4871C2.15351 24.751 2.50602 25.9853 3.15347 27.0561C3.93789 28.034 4.9691 28.7663 6.13176 29.171C6.60117 29.3569 7.04974 29.5951 7.46959 29.8815C7.85509 30.2066 8.20733 30.5721 8.52075 30.972C9.26206 31.9996 10.2584 32.7991 11.4035 33.2852C11.8522 33.4292 12.3194 33.5016 12.7891 33.5C13.5209 33.4763 14.2477 33.3654 14.9551 33.1695C15.9712 32.9218 17.0288 32.9218 18.0449 33.1695C19.1969 33.5404 20.4243 33.5803 21.5965 33.2852C22.7358 32.7965 23.7264 31.9972 24.4633 30.972C24.7767 30.5721 25.129 30.2066 25.5145 29.8815C25.9343 29.5951 26.3829 29.3569 26.8523 29.171C28.015 28.7663 29.0462 28.034 29.8306 27.0561C30.4725 25.9836 30.8194 24.7494 30.834 23.4871C30.862 22.9568 30.942 22.4309 31.0729 21.9175C31.2485 21.4475 31.4727 20.9988 31.7418 20.5791C32.4685 19.5253 32.9036 18.2855 33 16.9937C32.913 15.7051 32.489 14.4655 31.7736 13.4082ZM12.5183 10.3845C12.9908 10.3845 13.4527 10.5299 13.8456 10.8022C14.2385 11.0745 14.5447 11.4616 14.7255 11.9145C14.9063 12.3674 14.9536 12.8657 14.8614 13.3465C14.7693 13.8272 14.5417 14.2688 14.2076 14.6155C13.8735 14.9621 13.4478 15.1981 12.9844 15.2938C12.521 15.3894 12.0406 15.3403 11.6041 15.1527C11.1676 14.9651 10.7945 14.6475 10.532 14.2399C10.2695 13.8323 10.1293 13.3531 10.1293 12.8629C10.1293 12.2056 10.381 11.5752 10.8291 11.1104C11.2771 10.6456 11.8847 10.3845 12.5183 10.3845ZM20.4817 23.6028C20.0092 23.6028 19.5473 23.4574 19.1544 23.1851C18.7615 22.9128 18.4553 22.5257 18.2745 22.0728C18.0937 21.6199 18.0464 21.1216 18.1386 20.6409C18.2307 20.1601 18.4583 19.7185 18.7924 19.3719C19.1265 19.0252 19.5522 18.7892 20.0156 18.6936C20.479 18.5979 20.9594 18.647 21.3959 18.8346C21.8324 19.0222 22.2055 19.3399 22.468 19.7474C22.7305 20.155 22.8707 20.6342 22.8707 21.1244C22.8707 21.7817 22.619 22.4121 22.1709 22.8769C21.7229 23.3417 21.1153 23.6028 20.4817 23.6028ZM22.4088 13.2099L12.8528 23.1236C12.7047 23.2785 12.5286 23.4014 12.3345 23.4853C12.1404 23.5692 11.9323 23.6124 11.722 23.6124C11.5118 23.6124 11.3036 23.5692 11.1095 23.4853C10.9154 23.4014 10.7393 23.2785 10.5912 23.1236C10.4419 22.97 10.3235 22.7873 10.2426 22.5859C10.1617 22.3846 10.1201 22.1686 10.1201 21.9505C10.1201 21.7324 10.1617 21.5164 10.2426 21.3151C10.3235 21.1137 10.4419 20.931 10.5912 20.7774L20.1472 10.8637C20.4471 10.5526 20.8539 10.3778 21.278 10.3778C21.7021 10.3778 22.1089 10.5526 22.4088 10.8637C22.7087 11.1748 22.8772 11.5968 22.8772 12.0368C22.8772 12.4768 22.7087 12.8988 22.4088 13.2099Z" fill="#B8FF00"/>
</svg>
