<svg width="84" height="84" viewBox="0 0 84 84" fill="none" xmlns="http://www.w3.org/2000/svg">
<path fill-rule="evenodd" clip-rule="evenodd" d="M80.5572 42.0005V42.0005L80.563 42.3861L80.5803 42.7722L80.6091 43.1591L80.6492 43.5473L80.7004 43.9372L80.7626 44.3291L80.8354 44.7235L80.9184 45.1207L81.0112 45.5211L81.1135 45.925L81.2246 46.3328L81.3439 46.7446L81.4708 47.1609L81.6046 47.5817L81.7444 48.0074L81.8893 48.4379L82.0385 48.8735L82.1909 49.3141L82.3455 49.7599L82.5009 50.2106L82.6561 50.6662L82.8098 51.1265L82.9605 51.5913L83.1068 52.0602L83.2474 52.5329L83.3806 53.0088L83.505 53.4875L83.619 53.9684L83.7211 54.4508L83.8096 54.9339L83.883 55.417L83.9398 55.8991L83.9787 56.3795L83.9981 56.857L83.9969 57.3308L83.9738 57.7998L83.9278 58.263L83.8581 58.7194L83.7638 59.168L83.6444 59.6078L83.4995 60.0378L83.329 60.4572L83.1327 60.8652L82.911 61.2609L82.6643 61.6439L82.393 62.0135L82.0981 62.3693L81.7805 62.711L81.4413 63.0384L81.0819 63.3514L80.7036 63.6501L80.308 63.9346L79.8968 64.2053L79.4717 64.4626L79.0345 64.7069L78.5869 64.9391L78.1309 65.1597L77.6683 65.3697L77.2008 65.5699L76.7304 65.7613L76.2587 65.945L75.7875 66.1222L75.3184 66.2939L74.8529 66.4614L74.3926 66.626L73.9388 66.7888L73.4929 66.9514L73.0561 67.1149L72.6297 67.2808L72.2146 67.4504L71.812 67.6253L71.4227 67.8067L71.0476 67.9963L70.6877 68.1955L70.3436 68.4058L70.0161 68.629L69.706 68.8667L69.4139 69.1206L69.1405 69.3925L68.8852 69.6832L68.6463 69.9919L68.422 70.318L68.2107 70.6608L68.0107 71.0195L67.8204 71.3934L67.6384 71.7816L67.4631 72.1832L67.2931 72.5973L67.1269 73.0229L66.9633 73.4589L66.8007 73.9041L66.6379 74.3573L66.4735 74.8172L66.3063 75.2823L66.135 75.7512L65.9583 76.2223L65.7751 76.694L65.5844 77.1646L65.3849 77.6324L65.1757 78.0955L64.956 78.5521L64.7248 79.0004L64.4814 79.4385L64.2252 79.8646L63.9556 80.277L63.6722 80.6739L63.3747 81.0536L63.0628 81.4146L62.7366 81.7555L62.396 82.0748L62.0413 82.3716L61.6728 82.6448L61.2909 82.8935L60.8961 83.1172L60.4891 83.3155L60.0706 83.4881L59.6414 83.635L59.2024 83.7564L58.7545 83.8527L58.2987 83.9244L57.836 83.9722L57.3674 83.9971L56.8939 84L56.4166 83.9822L55.9365 83.9448L55.4545 83.8894L54.9714 83.8172L54.4883 83.7299L54.0059 83.6289L53.5248 83.5157L53.0459 83.3921L52.5697 83.2595L52.0968 83.1195L51.6276 82.9735L51.1624 82.8231L50.7018 82.6697L50.2458 82.5145L49.7947 82.359L49.3486 82.2044L48.9075 82.0518L48.4715 81.9023L48.0406 81.757L47.6146 81.6167L47.1934 81.4824L46.7767 81.355L46.3645 81.235L45.9565 81.1232L45.5522 81.0203L45.1516 80.9266L44.7541 80.8428L44.3595 80.7692L43.9674 80.7062L43.5774 80.6541L43.1891 80.6131L42.8021 80.5834L42.416 80.5652L42.0304 80.5585L41.6447 80.5633L41.2587 80.5797L40.8719 80.6076L40.4838 80.6468L40.0941 80.6972L39.7024 80.7585L39.3082 80.8304L38.9112 80.9126L38.5111 81.0047L38.1075 81.1062L37.7 81.2166L37.2885 81.3353L36.8726 81.4617L36.4521 81.5949L36.0269 81.7343L35.5967 81.8788L35.1616 82.0277L34.7213 82.1799L34.276 82.3343L33.8257 82.4898L33.3705 82.645L32.9105 82.7988L32.4461 82.9498L31.9775 83.0966L31.5051 83.2377L31.0294 83.3716L30.5509 83.4967L30.0702 83.6116L29.5879 83.7146L29.1048 83.8043L28.6217 83.8789L28.1395 83.9372L27.659 83.9775L27.1812 83.9985L26.707 83.999L26.2376 83.9777L25.7739 83.9336L25.3169 83.8658L24.8677 83.7734L24.4272 83.6561L23.9964 83.5132L23.5761 83.3447L23.1672 83.1505L22.7704 82.9308L22.3864 82.686L22.0157 82.4167L21.6588 82.1236L21.316 81.8078L20.9875 81.4703L20.6734 81.1124L20.3735 80.7356L20.0879 80.3413L19.8161 79.9313L19.5578 79.5072L19.3124 79.0709L19.0793 78.6241L18.8578 78.1687L18.6471 77.7065L18.4461 77.2394L18.254 76.7691L18.0697 76.2974L17.8921 75.8261L17.72 75.3568L17.5522 74.8909L17.3874 74.4301L17.2245 73.9758L17.062 73.5292L16.8986 73.0917L16.7329 72.6644L16.5636 72.2484L16.3893 71.8447L16.2084 71.4543L16.0195 71.0781L15.8212 70.7169L15.6117 70.3715L15.3896 70.0427L15.1532 69.7311L14.9006 69.4376L14.6302 69.1627L14.3411 68.906L14.0338 68.6659L13.709 68.4405L13.3675 68.2282L13.01 68.0273L12.6373 67.8363L12.2503 67.6537L11.8497 67.4779L11.4365 67.3075L11.0118 67.1411L10.5766 66.9773L10.1321 66.8147L9.67949 66.652L9.22011 66.4878L8.75536 66.3208L8.28671 66.1498L7.81571 65.9736L7.34399 65.791L6.87325 65.6009L6.40522 65.4022L5.9417 65.1938L5.4845 64.975L5.03548 64.7447L4.59648 64.5023L4.16931 64.2471L3.75578 63.9786L3.35762 63.6963L2.97648 63.3999L2.61394 63.0892L2.27144 62.7641L1.95031 62.4247L1.65171 62.0711L1.37664 61.7037L1.12592 61.3228L0.900181 60.929L0.699869 60.523L0.525218 60.1053L0.376261 59.6769L0.252838 59.2387L0.154591 58.7914L0.0809785 58.3362L0.0312849 57.874L0.00463317 57.4058L0 56.9328L0.0162325 56.4557L0.0520655 55.9758L0.10614 55.4939L0.17702 55.0109L0.263212 54.5277L0.363184 54.0452L0.475376 53.564L0.598224 53.0849L0.730166 52.6085L0.869662 52.1352L1.0152 51.6657L1.16531 51.2002L1.31857 50.7392L1.47361 50.2828L1.62912 49.8313L1.78387 49.3848L1.93669 48.9433L2.08646 48.507L2.23217 48.0756L2.37286 47.6492L2.50763 47.2276L2.63568 46.8106L2.75626 46.3981L2.8687 45.9897L2.97239 45.5852L3.06678 45.1842L3.1514 44.7865L3.22582 44.3917L3.28969 43.9994L3.34269 43.6093L3.38458 43.2209L3.41517 42.8338L3.43432 42.4476L3.44194 42.0619L3.438 41.6763L3.42252 41.2903L3.39556 40.9035L3.35725 40.5156L3.30776 40.126L3.24733 39.7345L3.17623 39.3405L3.09482 38.9438L3.00349 38.5439L2.90271 38.1405L2.79299 37.7334L2.67493 37.3222L2.54918 36.9067L2.41647 36.4866L2.27757 36.0617L2.13336 35.6319L1.98478 35.1972L1.83281 34.7573L1.67856 34.3124L1.52315 33.8625L1.36782 33.4077L1.21385 32.9481L1.06259 32.484L0.915436 32.0157L0.773853 31.5436L0.639339 31.0681L0.513425 30.5898L0.397669 30.1092L0.293635 29.6271L0.202885 29.144L0.126963 28.6609L0.0673771 28.1785L0.0255822 27.6978L0.00296417 27.2198L0.000820141 26.7453L0.0203407 26.2755L0.0625923 25.8113L0.1285 25.3537L0.218833 24.9038L0.334189 24.4626L0.474985 24.031L0.641447 23.6098L0.833601 23.2L1.05128 22.8022L1.2941 22.4172L1.56149 22.0454L1.8527 21.6874L2.16678 21.3434L2.5026 21.0137L2.85891 20.6985L3.23429 20.3975L3.6272 20.1107L4.03603 19.8379L4.45904 19.5785L4.89447 19.3321L5.3405 19.0981L5.79529 18.8757L6.257 18.6641L6.72379 18.4624L7.19386 18.2696L7.66545 18.0847L8.13686 17.9066L8.60643 17.7341L9.07259 17.566L9.53383 17.4011L9.98874 17.238L10.436 17.0755L10.8743 16.9122L11.3024 16.7468L11.7194 16.5778L12.1241 16.4039L12.5156 16.2236L12.8929 16.0355L13.2554 15.8379L13.602 15.6294L13.9322 15.4084L14.2451 15.1731L14.5401 14.9219L14.8165 14.653L15.0746 14.3653L15.316 14.0594L15.5425 13.736L15.7557 13.3959L15.9575 13.0396L16.1492 12.6681L16.3324 12.2821L16.5087 11.8826L16.6794 11.4704L16.8461 11.0465L17.0101 10.6121L17.1727 10.1683L17.3354 9.7163L17.4994 9.25741L17.6661 8.79303L17.8367 8.32463L18.0125 7.85375L18.1945 7.38203L18.384 6.91114L18.582 6.44282L18.7896 5.97887L19.0076 5.5211L19.2369 5.07136L19.4783 4.63148L19.7324 4.20331L19.9998 3.78862L20.281 3.38916L20.5763 3.00661L20.8859 2.64253L21.2098 2.29839L21.5481 1.9755L21.9005 1.67507L22.2669 1.39808L22.6467 1.1454L23.0395 0.91765L23.4446 0.715301L23.8613 0.5386L24.2889 0.3876L24.7264 0.262152L25.173 0.161917L25.6276 0.0863659L26.0892 0.0347972L26.557 0.00634598L27.0297 0L27.5064 0.014616L27.9862 0.0489372L28.468 0.101611L28.9509 0.171208L29.4341 0.256237L29.9167 0.355169L30.398 0.466447L30.8773 0.588505L31.354 0.719781L31.8274 0.858733L32.2973 1.00385L32.7631 1.15365L33.2245 1.30671L33.6812 1.46165L34.1331 1.61718L34.58 1.77204L35.0219 1.92505L35.4587 2.0751L35.8904 2.22117L36.3172 2.36229L36.7392 2.49757L37.1565 2.62618L37.5694 2.74739L37.9781 2.8605L38.3829 2.96491L38.7841 3.06006L39.1821 3.14547L39.5771 3.22072L39.9696 3.28544L40.3599 3.33931L40.7484 3.3821L41.1356 3.4136L41.5218 3.43366L41.9075 3.4422L42.2931 3.43919L42.6791 3.42462L43.0658 3.39857L43.4536 3.36115L43.843 3.31255L44.2344 3.25298L44.6281 3.18272L45.0246 3.10211L45.4242 3.01156L45.8273 2.91151L46.2341 2.80248L46.645 2.68506L47.0602 2.5599L47.4799 2.42771L47.9044 2.28927L48.3337 2.14545L48.7681 1.99718L49.2075 1.84544L49.652 1.69133L50.1015 1.53597L50.556 1.38059L51.0152 1.22646L51.4789 1.07492L51.9469 0.92739L52.4187 0.785308L52.8939 0.650174L53.372 0.523517L53.8524 0.406894L54.3345 0.301868L54.8175 0.210002L55.3007 0.132843L55.7831 0.0719013L56.264 0.0286374L56.7423 0.00444319L57.217 0.000623576L57.6873 0.0183783L58.152 0.0587842L58.6101 0.122779L59.0606 0.211143L59.5026 0.32449L59.935 0.463251L60.357 0.627666L60.7678 0.81778L61.1665 1.03344L61.5526 1.27427L61.9254 1.53974L62.2846 1.82909L62.6297 2.14139L62.9605 2.47553L63.2769 2.83026L63.579 3.20417L63.8669 3.59576L64.1408 4.00338L64.4012 4.42533L64.6486 4.85984L64.8836 5.3051L65.1069 5.75927L65.3194 6.22049L65.5218 6.68695L65.7152 7.15683L65.9007 7.62837L66.0793 8.09986L66.2522 8.56963L66.4206 9.03612L66.5858 9.49782L66.7489 9.95329L66.9114 10.4012L67.0746 10.8402L67.2398 11.2693L67.4084 11.6871L67.5819 12.0929L67.7616 12.4854L67.9491 12.864L68.1458 13.2276L68.3534 13.5755L68.5734 13.9071L68.8074 14.2214L69.0573 14.5178L69.3248 14.7958L69.611 15.0552L69.9154 15.2979L70.2374 15.5255L70.5763 15.7398L70.9313 15.9424L71.3016 16.1348L71.6865 16.3187L72.085 16.4955L72.4962 16.6666L72.9191 16.8335L73.3527 16.9977L73.7959 17.1604L74.2473 17.323L74.7056 17.4869L75.1696 17.6533L75.6378 17.8236L76.1085 17.9988L76.5802 18.1804L77.0512 18.3692L77.5198 18.5665L77.9842 18.7733L78.4425 18.9904L78.8929 19.2188L79.3337 19.4592L79.7628 19.7123L80.1787 19.9787L80.5794 20.2587L80.9633 20.5529L81.3289 20.8613L81.6747 21.1841L81.9993 21.5213L82.3016 21.8726L82.5805 22.2378L82.8351 22.6166L83.0649 23.0084L83.2693 23.4125L83.448 23.8284L83.601 24.2551L83.7285 24.6919L83.8307 25.1377L83.9082 25.5918L83.9617 26.0529L83.9919 26.5202L84 26.9926L83.987 27.469L83.9542 27.9486L83.903 28.4302L83.8346 28.9131L83.7508 29.3963L83.6529 29.879L83.5426 30.3604L83.4213 30.8399L83.2907 31.3168L83.1523 31.7906L83.0076 32.2607L82.8582 32.7269L82.7053 33.1886L82.5505 33.6458L82.3949 34.0981L82.24 34.5454L82.0868 34.9877L81.9365 35.4248L81.79 35.857L81.6485 36.2842L81.5127 36.7065L81.3835 37.1242L81.2617 37.5375L81.1479 37.9465L81.0428 38.3516L80.9469 38.7531L80.8607 39.1513L80.7846 39.5465L80.7191 39.9392L80.6643 40.3297L80.6207 40.7183L80.5883 41.1056L80.5673 41.4919L80.5578 41.8777L80.5572 42.0005Z" fill="url(#paint0_linear_103_17)"/>
<defs>
<linearGradient id="paint0_linear_103_17" x1="341" y1="166.5" x2="274.221" y2="263.93" gradientUnits="userSpaceOnUse">
<stop stop-color="#FF04D9"/>
<stop offset="1" stop-color="#00B560"/>
</linearGradient>
</defs>
</svg>
