<svg width="37" height="38" viewBox="0 0 37 38" fill="none" xmlns="http://www.w3.org/2000/svg">
<path id="Vector" d="M18.5 2.5V35.5M2 19H35M7.07692 10.75H13.4231M24.2115 10.75H29.2885M24.2115 24.7115H29.2885M24.2115 29.7885H29.2885M10.25 7.57692V13.9231M7.55923 24.5592L12.9408 29.9408M12.9408 24.5592L7.55923 29.9408M29.9231 2.5H7.07692C5.73044 2.5 4.4391 3.03489 3.487 3.987C2.53489 4.9391 2 6.23044 2 7.57692V30.4231C2 31.7696 2.53489 33.0609 3.487 34.013C4.4391 34.9651 5.73044 35.5 7.07692 35.5H29.9231C31.2696 35.5 32.5609 34.9651 33.513 34.013C34.4651 33.0609 35 31.7696 35 30.4231V7.57692C35 6.23044 34.4651 4.9391 33.513 3.987C32.5609 3.03489 31.2696 2.5 29.9231 2.5Z" stroke="#B8FF00" stroke-width="4" stroke-linecap="round" stroke-linejoin="round"/>
</svg>
