<svg width="33" height="34" viewBox="0 0 33 34" fill="none" xmlns="http://www.w3.org/2000/svg">
<g id="Group 1">
<path id="Vector" opacity="0.4" fill-rule="evenodd" clip-rule="evenodd" d="M31.8488 20.4535C32.4846 20.4535 33 20.9689 33 21.6047C33 28.1804 27.6804 33.5 21.1046 33.5C20.6899 33.5 20.3073 33.277 20.103 32.916C19.8985 32.5551 19.9042 32.1122 20.1175 31.7565L21.7292 29.0705C22.0563 28.5253 22.7634 28.3486 23.3086 28.6757C23.8536 29.0028 24.0304 29.7099 23.7033 30.2551L23.2869 30.9492C27.5372 29.963 30.6977 26.158 30.6977 21.6047C30.6977 20.9689 31.2131 20.4535 31.8488 20.4535Z" fill="#B8FF00"/>
<path id="Vector_2" opacity="0.4" fill-rule="evenodd" clip-rule="evenodd" d="M31.8488 20.4535C32.4846 20.4535 33 20.9689 33 21.6047C33 28.1804 27.6804 33.5 21.1046 33.5C20.6899 33.5 20.3073 33.277 20.103 32.916C19.8985 32.5551 19.9042 32.1122 20.1175 31.7565L21.7292 29.0705C22.0563 28.5253 22.7634 28.3486 23.3086 28.6757C23.8536 29.0028 24.0304 29.7099 23.7033 30.2551L23.2869 30.9492C27.5372 29.963 30.6977 26.158 30.6977 21.6047C30.6977 20.9689 31.2131 20.4535 31.8488 20.4535Z" fill="#B8FF00"/>
<path id="Vector_3" opacity="0.4" fill-rule="evenodd" clip-rule="evenodd" d="M9.71307 3.05088C5.4628 4.03692 2.30233 7.84199 2.30233 12.3953C2.30233 13.0311 1.78693 13.5465 1.15116 13.5465C0.515399 13.5465 0 13.0311 0 12.3953C0 5.81958 5.31958 0.5 11.8953 0.5C12.3101 0.5 12.6928 0.72308 12.8971 1.08398C13.1014 1.44487 13.0958 1.8878 12.8825 2.24343L11.2709 4.92947C10.9438 5.47464 10.2366 5.65142 9.69147 5.32432C9.14631 4.99722 8.96952 4.29012 9.29662 3.74494L9.71307 3.05088Z" fill="#B8FF00"/>
<path id="Vector_4" opacity="0.4" fill-rule="evenodd" clip-rule="evenodd" d="M9.71307 3.05088C5.4628 4.03692 2.30233 7.84199 2.30233 12.3953C2.30233 13.0311 1.78693 13.5465 1.15116 13.5465C0.515399 13.5465 0 13.0311 0 12.3953C0 5.81958 5.31958 0.5 11.8953 0.5C12.3101 0.5 12.6928 0.72308 12.8971 1.08398C13.1014 1.44487 13.0958 1.8878 12.8825 2.24343L11.2709 4.92947C10.9438 5.47464 10.2366 5.65142 9.69147 5.32432C9.14631 4.99722 8.96952 4.29012 9.29662 3.74494L9.71307 3.05088Z" fill="#B8FF00"/>
<path id="Vector_5" opacity="0.4" d="M16.5 22.6791V23.6154H1.15118V22.6791C1.15118 19.9777 1.82653 19.3024 4.55863 19.3024H13.0926C15.8247 19.3024 16.5 19.9777 16.5 22.6791Z" fill="#B8FF00"/>
<path id="Vector_6" opacity="0.4" d="M16.5 22.6791V23.6154H1.15118V22.6791C1.15118 19.9777 1.82653 19.3024 4.55863 19.3024H13.0926C15.8247 19.3024 16.5 19.9777 16.5 22.6791Z" fill="#B8FF00"/>
<path id="Vector_7" d="M1.15118 23.6155V25.9178V28.9722C1.15118 31.6736 1.82653 32.349 4.55863 32.349H13.0926C15.8247 32.349 16.5 31.6736 16.5 28.9722V25.9178V23.6155H1.15118Z" fill="#B8FF00"/>
<path id="Vector_8" d="M1.15118 23.6155V25.9178V28.9722C1.15118 31.6736 1.82653 32.349 4.55863 32.349H13.0926C15.8247 32.349 16.5 31.6736 16.5 28.9722V25.9178V23.6155H1.15118Z" fill="#B8FF00"/>
<path id="Vector_9" opacity="0.4" d="M31.8488 5.02787V5.96415H16.5V5.02787C16.5 2.32647 17.1753 1.65112 19.9074 1.65112H28.4414C31.1735 1.65112 31.8488 2.32647 31.8488 5.02787Z" fill="#B8FF00"/>
<path id="Vector_10" opacity="0.4" d="M31.8488 5.02787V5.96415H16.5V5.02787C16.5 2.32647 17.1753 1.65112 19.9074 1.65112H28.4414C31.1735 1.65112 31.8488 2.32647 31.8488 5.02787Z" fill="#B8FF00"/>
<path id="Vector_11" d="M16.5 5.96423V8.26656V11.321C16.5 14.0224 17.1753 14.6978 19.9074 14.6978H28.4414C31.1735 14.6978 31.8488 14.0224 31.8488 11.321V8.26656V5.96423H16.5Z" fill="#B8FF00"/>
<path id="Vector_12" d="M16.5 5.96423V8.26656V11.321C16.5 14.0224 17.1753 14.6978 19.9074 14.6978H28.4414C31.1735 14.6978 31.8488 14.0224 31.8488 11.321V8.26656V5.96423H16.5Z" fill="#B8FF00"/>
</g>
</svg>
