<svg width="33" height="34" viewBox="0 0 33 34" fill="none" xmlns="http://www.w3.org/2000/svg">
<path id="Vector" d="M31.2706 1.31474L32.1756 2.21004C33.4228 3.44525 33.2341 5.63494 31.7507 7.1008L13.0865 25.5637L7.03952 27.7519C6.28019 28.0281 5.5408 27.6699 5.39047 26.9552C5.33966 26.6959 5.36358 26.4278 5.4595 26.1813L7.71448 20.1479L26.3265 1.73507C27.8099 0.26921 30.0234 0.0795279 31.2706 1.31474ZM12.272 3.15086C12.4734 3.15086 12.6729 3.19011 12.859 3.26637C13.0451 3.34263 13.2142 3.4544 13.3567 3.59531C13.4991 3.73622 13.6121 3.90351 13.6892 4.08761C13.7663 4.27172 13.806 4.46904 13.806 4.66832C13.806 4.86759 13.7663 5.06492 13.6892 5.24902C13.6121 5.43313 13.4991 5.60041 13.3567 5.74132C13.2142 5.88223 13.0451 5.99401 12.859 6.07027C12.6729 6.14652 12.4734 6.18577 12.272 6.18577H6.13599C5.32231 6.18577 4.54195 6.50552 3.96659 7.07468C3.39123 7.64384 3.068 8.41578 3.068 9.22069V27.4302C3.068 28.2351 3.39123 29.007 3.96659 29.5762C4.54195 30.1453 5.32231 30.4651 6.13599 30.4651H24.544C25.3577 30.4651 26.138 30.1453 26.7134 29.5762C27.2887 29.007 27.612 28.2351 27.612 27.4302V21.3603C27.612 20.9579 27.7736 20.5719 28.0613 20.2873C28.3489 20.0028 28.7391 19.8429 29.146 19.8429C29.5528 19.8429 29.943 20.0028 30.2307 20.2873C30.5183 20.5719 30.68 20.9579 30.68 21.3603V27.4302C30.68 29.04 30.0335 30.5839 28.8828 31.7222C27.7321 32.8605 26.1713 33.5 24.544 33.5H6.13599C4.50863 33.5 2.94791 32.8605 1.79719 31.7222C0.646469 30.5839 0 29.04 0 27.4302V9.22069C0 7.61087 0.646469 6.06699 1.79719 4.92867C2.94791 3.79036 4.50863 3.15086 6.13599 3.15086H12.272Z" fill="#B8FF00"/>
</svg>
